<?xml version="1.0" standalone="no"?>
<!DOCTYPE svg PUBLIC "-//W3C//DTD SVG 20010904//EN"
 "http://www.w3.org/TR/2001/REC-SVG-20010904/DTD/svg10.dtd">
<svg version="1.0" xmlns="http://www.w3.org/2000/svg"
 width="1024.000000pt" height="1024.000000pt" viewBox="0 0 1024.000000 1024.000000"
 preserveAspectRatio="xMidYMid meet">

<g transform="translate(0.000000,1024.000000) scale(0.100000,-0.100000)"
fill="#000000" stroke="none">
<path d="M5065 8650 l-1750 -5 -73 -27 c-153 -56 -277 -190 -311 -338 -15 -63
-14 -3778 0 -3840 19 -84 68 -167 136 -230 69 -65 97 -82 181 -111 53 -18 116
-19 1857 -19 1620 0 1807 2 1856 16 166 49 293 174 333 329 14 52 16 273 16
1946 0 1824 -1 1889 -19 1948 -56 182 -229 319 -416 332 -33 2 -847 2 -1810
-1z m1866 -195 c67 -23 150 -100 180 -167 20 -46 23 -70 23 -178 l1 -125 -742
-3 -742 -2 1 29 c1 42 -44 113 -93 147 l-42 29 -391 0 -391 0 -44 -25 c-48
-27 -78 -70 -96 -140 l-12 -45 -739 0 -739 0 0 135 c0 120 2 140 23 180 50
101 135 159 252 170 36 3 838 7 1783 9 1569 2 1723 1 1768 -14z m-1461 -749
l0 -304 -27 -5 c-16 -3 -172 -4 -348 -4 l-320 2 -3 302 c-2 281 -1 302 15 306
10 3 168 5 351 6 l332 1 0 -304z m1660 34 l0 -60 -740 0 -740 0 0 55 0 54 128
4 c70 1 403 4 740 5 l612 2 0 -60z m-2540 -10 l0 -60 -744 0 c-836 0 -763 -7
-750 77 l6 43 744 0 744 0 0 -60z m2543 -251 c4 -18 3 -1126 -3 -2391 l0 -28
-530 0 -530 0 -2 496 -3 496 -240 110 c-682 312 -677 310 -715 305 -30 -4
-181 -71 -867 -388 l-83 -38 0 -490 0 -491 -530 0 -530 0 -1 1190 c-1 655 -2
1200 -2 1213 l-1 22 747 3 747 2 0 -54 c0 -125 63 -213 155 -217 64 -3 62 -1
67 -114 3 -98 5 -106 34 -141 39 -48 88 -76 139 -78 l40 -2 5 -107 c6 -124 8
-127 88 -127 80 0 92 17 92 134 l0 95 56 12 c46 10 62 20 100 62 27 30 44 60
45 76 1 14 2 62 3 106 l1 80 62 6 c110 10 173 85 173 207 l0 62 353 2 c193 2
526 5 738 7 l386 3 6 -23z m-1903 -340 l0 -79 -115 0 -115 0 0 73 c0 41 2 76
4 78 3 3 55 5 115 6 l111 2 0 -80z m100 -944 c329 -154 440 -208 440 -214 0
-9 -626 -304 -643 -304 -27 0 -657 292 -657 304 0 7 57 36 195 99 33 15 92 42
130 60 260 122 322 148 340 143 11 -3 99 -43 195 -88z m-749 -470 c123 -58
275 -129 337 -157 l112 -51 0 -418 0 -418 -327 161 c-181 88 -334 165 -340
171 -10 7 -13 102 -13 413 0 222 2 404 3 404 2 0 105 -47 228 -105z m1309
-300 l0 -406 -336 -164 c-186 -91 -339 -165 -341 -165 -2 0 -2 185 -1 412 l3
411 330 158 c182 86 333 158 338 158 4 1 7 -181 7 -404z m-1333 -713 c500
-249 527 -262 556 -262 15 0 223 97 464 215 l437 215 560 -2 561 -3 -1 -190
c-1 -149 -5 -199 -18 -234 -25 -68 -82 -130 -145 -160 l-56 -26 -1810 0 -1810
0 -41 22 c-23 12 -60 43 -82 68 -64 73 -72 109 -72 332 l0 193 559 0 559 0
339 -168z"/>
<path d="M930 3003 l0 -498 82 3 83 3 0 182 0 182 155 6 c173 6 216 19 283 84
60 59 82 117 81 220 0 110 -22 164 -95 229 -80 72 -111 79 -366 84 l-223 4 0
-499z m444 321 c55 -28 78 -74 73 -147 -4 -66 -26 -103 -78 -129 -27 -14 -60
-18 -156 -18 l-123 0 0 161 0 161 123 -3 c99 -3 129 -8 161 -25z"/>
<path d="M2227 3480 c-69 -54 -25 -160 67 -160 28 0 84 46 87 70 4 39 -3 63
-26 85 -31 32 -91 34 -128 5z"/>
<path d="M3720 3495 c0 -3 57 -98 126 -212 70 -115 135 -221 145 -238 l17 -30
-149 -235 c-82 -129 -154 -243 -160 -252 -9 -17 -2 -18 84 -18 l94 0 118 196
117 196 33 -55 c19 -31 70 -119 115 -196 l82 -141 94 0 93 0 -123 203 c-67
111 -137 225 -155 254 l-32 51 57 87 c31 48 98 155 150 238 l93 152 -92 3
c-50 2 -93 -1 -95 -5 -1 -4 -50 -89 -108 -187 -96 -161 -108 -178 -120 -161
-7 10 -55 94 -106 186 l-93 169 -92 0 c-51 0 -93 -2 -93 -5z"/>
<path d="M5950 3005 l0 -495 80 0 80 0 0 495 0 495 -80 0 -80 0 0 -495z"/>
<path d="M3358 3383 l-38 -4 0 -94 0 -94 -55 -3 c-30 -2 -55 -6 -55 -10 0 -5
0 -35 0 -68 l0 -60 55 0 55 0 0 -207 c0 -223 8 -262 58 -306 48 -43 149 -58
238 -36 48 12 50 17 33 86 l-12 45 -45 -5 c-52 -6 -98 7 -107 31 -3 9 -6 99
-6 201 l0 186 85 3 86 3 0 69 0 70 -87 0 -88 0 3 100 3 100 -43 -2 c-24 -1
-60 -3 -80 -5z"/>
<path d="M8308 3383 l-38 -4 0 -94 0 -94 -57 -3 -58 -3 0 -65 0 -65 58 -3 57
-3 0 -210 c0 -229 5 -253 56 -300 53 -48 130 -60 234 -38 41 9 50 14 45 27 -3
9 -9 35 -12 59 l-6 42 -64 -1 c-101 -3 -103 0 -103 233 l0 189 90 0 90 0 0 70
0 70 -91 0 -90 0 3 100 3 100 -40 -2 c-22 -1 -57 -3 -77 -5z"/>
<path d="M1981 3179 c-25 -11 -62 -38 -83 -61 l-38 -41 0 56 0 57 -80 0 -80 0
0 -340 0 -340 80 0 80 0 0 153 c0 172 14 249 58 311 35 51 89 79 157 80 l53 0
6 64 c4 34 4 67 1 72 -11 17 -108 10 -154 -11z"/>
<path d="M2790 3180 c-25 -12 -60 -35 -77 -53 l-33 -31 0 47 0 47 -80 0 -80 0
0 -342 0 -343 80 3 80 4 0 211 c0 187 3 217 20 254 49 108 210 122 260 22 18
-35 20 -59 20 -264 l0 -225 80 0 80 0 0 228 c0 254 -10 322 -58 381 -42 51
-95 75 -177 79 -54 2 -80 -2 -115 -18z"/>
<path d="M4696 3176 c-70 -30 -137 -92 -174 -161 -25 -46 -27 -60 -27 -165 0
-129 14 -174 76 -244 95 -109 271 -146 407 -86 42 19 152 113 152 131 0 4 -28
23 -62 44 l-62 36 -30 -35 c-40 -45 -84 -66 -140 -66 -121 0 -185 76 -186 221
0 60 5 85 23 120 39 73 113 109 195 94 28 -5 51 -21 95 -67 l58 -60 55 42 55
41 -18 30 c-52 89 -149 141 -273 146 -73 3 -93 0 -144 -21z"/>
<path d="M5418 3186 c-128 -46 -203 -136 -228 -275 -39 -218 97 -403 308 -419
115 -8 213 30 295 116 l39 40 -53 39 -54 40 -41 -42 c-79 -78 -200 -86 -278
-17 -24 21 -55 89 -56 120 l0 23 248 -1 247 -1 -3 58 c-1 32 -5 72 -8 88 -19
94 -112 199 -204 228 -62 20 -160 21 -212 3z m178 -132 c38 -18 65 -52 82
-101 l11 -33 -170 0 -169 0 15 37 c41 99 140 140 231 97z"/>
<path d="M6454 3186 c-91 -29 -157 -94 -206 -201 -29 -65 -32 -195 -5 -270 80
-229 379 -300 561 -134 31 28 56 56 56 63 0 6 -22 28 -50 49 l-49 37 -23 -30
c-26 -36 -110 -80 -152 -80 -58 0 -110 22 -147 60 -39 41 -67 118 -45 126 7 3
119 3 250 2 l238 -3 -4 80 c-7 131 -67 228 -172 282 -61 32 -186 41 -252 19z
m198 -141 c29 -22 68 -84 68 -109 0 -14 -20 -16 -165 -16 -91 0 -165 2 -165 5
0 3 9 22 19 43 19 38 50 70 86 91 30 17 126 9 157 -14z"/>
<path d="M7263 3179 c-23 -11 -58 -38 -78 -60 l-35 -39 0 55 0 55 -80 0 -80 0
0 -340 0 -340 79 0 79 0 4 183 c3 164 6 187 26 232 41 89 86 122 173 127 61 3
66 10 68 101 l1 47 -57 0 c-39 0 -72 -7 -100 -21z"/>
<path d="M7635 3175 c-37 -15 -78 -43 -108 -74 l-50 -49 54 -36 c63 -42 72
-44 92 -12 38 57 168 93 227 63 33 -16 70 -73 70 -107 l0 -27 -117 -7 c-151
-10 -200 -20 -258 -57 -107 -68 -117 -232 -20 -317 55 -48 115 -66 198 -60 71
6 117 26 165 71 l32 31 0 -42 0 -42 80 0 80 0 0 228 c0 275 -8 312 -79 383
-56 57 -121 79 -230 79 -57 0 -91 -7 -136 -25z m285 -385 c0 -36 -23 -96 -48
-124 -24 -27 -91 -56 -130 -56 -91 0 -151 84 -106 148 29 41 89 58 227 61 l57
1 0 -30z"/>
<path d="M8900 3191 c-87 -27 -174 -104 -213 -189 -18 -39 -22 -65 -22 -157 0
-100 2 -115 28 -167 81 -164 284 -232 460 -154 56 24 152 110 142 126 -3 4
-27 24 -55 44 l-50 36 -21 -29 c-11 -15 -40 -39 -62 -52 -52 -29 -145 -32
-195 -6 -40 22 -81 82 -89 131 l-6 37 249 -1 c287 -2 265 -11 244 107 -31 180
-149 284 -318 282 -37 0 -78 -4 -92 -8z m167 -138 c34 -16 75 -67 88 -110 l6
-23 -170 0 -171 0 15 37 c42 99 140 140 232 96z"/>
<path d="M2210 2850 l0 -340 83 0 82 0 -2 337 -2 338 -81 3 -80 3 0 -341z"/>
</g>
</svg>
